<svg xmlns="http://www.w3.org/2000/svg" viewBox="0 0 100 125"><path d="M88.9 22.4c0-5.7-4.7-10.4-10.4-10.4s-10.4 4.7-10.4 10.4 4.7 10.4 10.4 10.4c5.8-.1 10.4-4.7 10.4-10.4zm-14.7 0c0-2.4 2-4.4 4.4-4.4s4.4 2 4.4 4.4-2 4.4-4.4 4.4-4.4-2-4.4-4.4z"/><path d="M50 12c-5.7 0-10.4 4.7-10.4 10.4S44.3 32.8 50 32.8c1.9 0 3.7-.5 5.3-1.5l14 14c-.7 1.4-1.1 3-1.1 4.7 0 4.7 3.1 8.6 7.4 9.9v7.8c-4.3 1.3-7.4 5.2-7.4 9.9 0 5.7 4.7 10.4 10.4 10.4S89 83.3 89 77.6c0-4.7-3.1-8.6-7.4-9.9v-7.8c4.3-1.3 7.4-5.2 7.4-9.9 0-5.7-4.7-10.4-10.4-10.4-1.9 0-3.6.5-5.1 1.4L59.3 26.9c.7-1.4 1-2.9 1-4.5C60.4 16.7 55.7 12 50 12zm-4.4 10.4c0-2.4 2-4.4 4.4-4.4s4.4 2 4.4 4.4-2 4.4-4.4 4.4-4.4-2-4.4-4.4zm37.3 55.2c0 2.4-2 4.4-4.4 4.4s-4.4-2-4.4-4.4 2-4.4 4.4-4.4 4.4 2 4.4 4.4zm-4.3-32c2.4 0 4.4 2 4.4 4.4s-2 4.4-4.4 4.4-4.4-2-4.4-4.4 1.9-4.4 4.4-4.4z"/><path d="M11.1 50c0 5.7 4.7 10.4 10.4 10.4 1 0 1.9-.1 2.7-.4l15.6 15.6c-.1.7-.2 1.3-.2 2C39.6 83.3 44.3 88 50 88s10.4-4.7 10.4-10.4c0-4.7-3.1-8.6-7.4-9.9v-7.8c4.3-1.3 7.4-5.2 7.4-9.9 0-5.7-4.7-10.4-10.4-10.4S39.6 44.3 39.6 50c0 4.7 3.1 8.6 7.4 9.9v7.8c-1.6.5-3 1.3-4.2 2.4L29.4 56.7c1.5-1.8 2.4-4.1 2.4-6.7 0-4.7-3.1-8.6-7.4-9.9v-7.8c4.3-1.3 7.4-5.2 7.4-9.9 0-5.7-4.7-10.4-10.4-10.4S11 16.7 11 22.4c0 4.7 3.1 8.6 7.4 9.9v7.8c-4.2 1.3-7.3 5.2-7.3 9.9zm34.5 0c0-2.4 2-4.4 4.4-4.4s4.4 2 4.4 4.4-2 4.4-4.4 4.4-4.4-2-4.4-4.4zM50 73.3c2.4 0 4.4 2 4.4 4.4S52.4 82 50 82s-4.4-2-4.4-4.4 2-4.3 4.4-4.3zM25.8 50c0 2.4-2 4.4-4.4 4.4S17 52.4 17 50s2-4.4 4.4-4.4 4.4 2 4.4 4.4zm-8.7-27.6c0-2.4 2-4.4 4.4-4.4s4.4 2 4.4 4.4-2 4.4-4.4 4.4-4.4-2-4.4-4.4z"/><path d="M21.4 88c5.7 0 10.4-4.7 10.4-10.4s-4.7-10.4-10.4-10.4S11 71.9 11 77.6c.1 5.7 4.7 10.4 10.4 10.4zm0-14.7c2.4 0 4.4 2 4.4 4.4s-2 4.4-4.4 4.4-4.4-2-4.4-4.4 2-4.4 4.4-4.4z"/><text y="115" font-size="5" font-weight="bold" font-family="'Helvetica Neue', Helvetica, Arial-Unicode, Arial, Sans-serif">Created by Agni</text><text y="120" font-size="5" font-weight="bold" font-family="'Helvetica Neue', Helvetica, Arial-Unicode, Arial, Sans-serif">from the Noun Project</text></svg>