<svg xmlns="http://www.w3.org/2000/svg" viewBox="0 0 100 125"><path d="M83.1 54.4h-6.2v9H23.1V30.9h37.2v-6.2h-39c-2.4 0-4.4 2-4.4 4.4v40.5h66.2V54.4zm8.5 36.9l-8.5-18.6H16.9L8.4 91.3c-1.3 2.9.8 6.2 4 6.2h75.2c3.2 0 5.3-3.3 4-6.2zm-32.1-.6h-19c-.6 0-1-.5-.9-1.1l1.1-4.2c.1-.4.5-.7.9-.7h16.8c.4 0 .8.3.9.7l1.1 4.2c.1.6-.3 1.1-.9 1.1z"/><path d="M67.5 51.1h19.7c2.1 0 3.8-1.7 3.8-3.8v-41c0-2.1-1.7-3.8-3.8-3.8H67.5c-2.1 0-3.8 1.7-3.8 3.8v41c0 2.1 1.7 3.8 3.8 3.8zm9.8-2.8c-1.4 0-2.5-1.1-2.5-2.5s1.1-2.5 2.5-2.5 2.5 1.1 2.5 2.5-1.2 2.5-2.5 2.5zm-3.2-43h6.2c.5 0 .9.4.9.9s-.4.9-.9.9h-6.2c-.5 0-.9-.4-.9-.9.1-.5.5-.9.9-.9zm-6.4 4.5h19.1v30.8H67.7V9.8z"/><text y="115" font-size="5" font-weight="bold" font-family="'Helvetica Neue', Helvetica, Arial-Unicode, Arial, Sans-serif">Created by Adrien Coquet</text><text y="120" font-size="5" font-weight="bold" font-family="'Helvetica Neue', Helvetica, Arial-Unicode, Arial, Sans-serif">from the Noun Project</text></svg>