<svg xmlns="http://www.w3.org/2000/svg" viewBox="0 0 100 125"><path d="M81.1 4.8H18.9c-2.8 0-5 2.2-5 5v80.4c0 2.8 2.2 5 5 5h62.3c2.8 0 5-2.2 5-5V9.8c-.1-2.8-2.3-5-5.1-5zm3 85.4c0 1.7-1.3 3-3 3H18.9c-1.7 0-3-1.3-3-3V9.8c0-1.7 1.3-3 3-3h62.3c1.7 0 3 1.3 3 3v80.4z"/><path d="M79 12H21v14.8h58V12zm-2 12.8H23V14h54v10.8zm2 7.8H21v24h58v-24zm-2 22H23v-20h54v20z"/><path d="M45.3 38.1v13l11.2-6.5-11.2-6.5zm2 3.4l5.2 3-5.2 3v-6zm5.3 32.8h17.9v-5.9H52.6v5.9zm2-3.9h13.9v1.9H54.6v-1.9zm-2 10.9h21.7v-5.9H52.6v5.9zm2-3.9h17.7v1.9H54.6v-1.9zm-2-10.1H79v-5.9H52.6v5.9zm2-3.9H77v1.9H54.6v-1.9zm-2 24.9H79v-5.9H52.6v5.9zm2-4H77v1.9H54.6v-1.9zm-33.4 4h26.4V61.4H21.2v26.9zm24.3-24.9v9.8l-2.9-2.9-7.7 7.7-4.1-4.1-7.7 7.7V63.4h22.4zm.9 12zm-23.2 8.9l7.7-7.7 4.1 4.1 7.7-7.7 2.9 2.9v10.3H23.2v-1.9zm-1-.4z"/><path d="M28.4 72.6c2 0 3.7-1.7 3.7-3.7s-1.7-3.7-3.7-3.7-3.7 1.7-3.7 3.7c.1 2.1 1.7 3.7 3.7 3.7zm0-5.3c.9 0 1.7.8 1.7 1.7 0 .9-.8 1.7-1.7 1.7s-1.7-.8-1.7-1.7c.1-1 .8-1.7 1.7-1.7z"/><text y="115" font-size="5" font-weight="bold" font-family="'Helvetica Neue', Helvetica, Arial-Unicode, Arial, Sans-serif">Created by mikicon</text><text y="120" font-size="5" font-weight="bold" font-family="'Helvetica Neue', Helvetica, Arial-Unicode, Arial, Sans-serif">from the Noun Project</text></svg>