<svg xmlns="http://www.w3.org/2000/svg" xmlns:xlink="http://www.w3.org/1999/xlink" version="1.1" x="0px" y="0px" viewBox="0 0 100 125" style="enable-background:new 0 0 100 100;" xml:space="preserve"><g><path d="M81.1,4.8H18.9c-2.8,0-5,2.2-5,5v80.4c0,2.8,2.2,5,5,5h62.3c2.8,0,5-2.2,5-5V9.8C86.1,7,83.9,4.8,81.1,4.8z M84.1,90.2   c0,1.7-1.3,3-3,3H18.9c-1.7,0-3-1.3-3-3V9.8c0-1.7,1.3-3,3-3h62.3c1.7,0,3,1.3,3,3V90.2z"/><path d="M79,12H21v14.8H79V12z M77,24.8H23V14H77V24.8z"/><path d="M79,32.6H21v24H79V32.6z M77,54.6H23v-20H77V54.6z"/><path d="M45.3,38.1v13l11.2-6.5L45.3,38.1z M47.3,41.5l5.2,3l-5.2,3V41.5z"/><path d="M52.6,74.3h17.9v-5.9H52.6V74.3z M54.6,70.4h13.9v1.9H54.6V70.4z"/><path d="M52.6,81.3h21.7v-5.9H52.6V81.3z M54.6,77.4h17.7v1.9H54.6V77.4z"/><path d="M52.6,67.3H79v-5.9H52.6V67.3z M54.6,63.4H77v1.9H54.6V63.4z"/><path d="M52.6,88.3H79v-5.9H52.6V88.3z M54.6,84.3H77v1.9H54.6V84.3z"/><path d="M21.2,88.3h26.4V61.4H21.2V88.3z M45.5,63.4v9.8l-2.9-2.9l-7.7,7.7l-4.1-4.1l-7.7,7.7V63.4H45.5z M46.4,75.4L46.4,75.4   L46.4,75.4L46.4,75.4z M23.2,84.3l7.7-7.7l4.1,4.1l7.7-7.7l2.9,2.9v10.3H23.2V84.3z M22.2,83.9L22.2,83.9L22.2,83.9L22.2,83.9z"/><path d="M28.4,72.6c2,0,3.7-1.7,3.7-3.7c0-2-1.7-3.7-3.7-3.7s-3.7,1.7-3.7,3.7C24.8,71,26.4,72.6,28.4,72.6z M28.4,67.3   c0.9,0,1.7,0.8,1.7,1.7c0,0.9-0.8,1.7-1.7,1.7s-1.7-0.8-1.7-1.7C26.8,68,27.5,67.3,28.4,67.3z"/></g><text x="0" y="115" fill="#000000" font-size="5px" font-weight="bold" font-family="'Helvetica Neue', Helvetica, Arial-Unicode, Arial, Sans-serif">Created by mikicon</text><text x="0" y="120" fill="#000000" font-size="5px" font-weight="bold" font-family="'Helvetica Neue', Helvetica, Arial-Unicode, Arial, Sans-serif">from the Noun Project</text></svg>